<?xml version="1.0" encoding="UTF-8"?>
<svg xmlns="http://www.w3.org/2000/svg" width="1600" height="1000" viewBox="0 0 1600 1000" role="img" aria-labelledby="title desc">
  <title id="title">MC-MAT-1-03 - Materiali innovativi e sostenibili</title>
  <desc id="desc">Immagine didattica generata dal Markdown della micro-competenza MC-MAT-1-03.</desc>
  <defs>
    <filter id="soft" x="-12%" y="-12%" width="124%" height="124%">
      <feDropShadow dx="0" dy="8" stdDeviation="10" flood-color="#123047" flood-opacity="0.12"/>
    </filter>
    <marker id="arrow" markerWidth="12" markerHeight="12" refX="10" refY="6" orient="auto" markerUnits="strokeWidth">
      <path d="M1,1 L11,6 L1,11 Z" fill="#123047"/>
    </marker>
    <style>
      .subtitle { font: 400 22px Arial, sans-serif; fill: #4a6274; }
      .chip { font: 800 15px Arial, sans-serif; fill: #ffffff; }
      .section { font: 800 24px Arial, sans-serif; fill: #102f43; }
      .callTitle { font: 800 21px Arial, sans-serif; fill: #102f43; }
      .body { font: 400 18px Arial, sans-serif; fill: #34495e; }
      .small { font: 400 14px Arial, sans-serif; fill: #536b7d; }
      .num { font: 800 22px Arial, sans-serif; fill: #ffffff; }
      .line { fill: none; stroke: #123047; stroke-width: 3.5; stroke-linecap: round; marker-end: url(#arrow); opacity: 0.8; }
    </style>
  </defs>
  <rect width="1600" height="1000" fill="#f7fbfc"/>
  <circle cx="145" cy="160" r="118" fill="#EFEBE9"/>
  <circle cx="1450" cy="145" r="94" fill="#EFEBE9" opacity="0.75"/>
  <circle cx="1395" cy="870" r="150" fill="#2f8f66" opacity="0.13"/>

  <text x="70" y="82" style="font: 800 43px Arial, sans-serif; fill: #102f43;">Materiali innovativi e sostenibili</text>
  <text class="subtitle" x="72" y="122">MC-MAT-1-03 · Materiali e rifiuti · immagine generata da Markdown</text>

  <g transform="translate(70 155)">
    <rect x="0" y="0" width="132" height="34" rx="17" fill="#6D4C41"/><text class="chip" text-anchor="middle" x="66" y="23">MAT</text>
<rect x="145" y="0" width="132" height="34" rx="17" fill="#102f43"/><text class="chip" text-anchor="middle" x="211" y="23">Classe 1</text>
<rect x="290" y="0" width="132" height="34" rx="17" fill="#102f43"/><text class="chip" text-anchor="middle" x="356" y="23">DigComp F</text>
<rect x="435" y="0" width="132" height="34" rx="17" fill="#102f43"/><text class="chip" text-anchor="middle" x="501" y="23">SDG 9, 12</text>
  </g>

  <g filter="url(#soft)">
    <rect x="500" y="205" width="600" height="560" rx="30" fill="#EFEBE9" stroke="#ffffff" stroke-width="8"/>
    
      <rect x="625" y="300" width="150" height="150" rx="24" fill="#ffffff" stroke="#6D4C41" stroke-width="10"/>
      <circle cx="895" cy="375" r="76" fill="#ffffff" stroke="#2f8f66" stroke-width="10"/>
      <path d="M690 600 L800 455 L920 600 Z" fill="#ffffff" stroke="#6D4C41" stroke-width="10" stroke-linejoin="round"/>
      <path d="M610 695 H990" stroke="#6b7f8f" stroke-width="8" stroke-linecap="round"/>
      <circle cx="680" cy="375" r="26" fill="#2f8f66" opacity="0.86"/>
      <circle cx="895" cy="375" r="26" fill="#6D4C41" opacity="0.74"/>
      <circle cx="800" cy="560" r="26" fill="#2f8f66" opacity="0.62"/>
    <rect x="560" y="720" width="480" height="48" rx="24" fill="#6D4C41" opacity="0.95"/>
    <text class="chip" text-anchor="middle" x="800" y="751">materiali innovativi · bioplastica · sostenibilità · innovazione · class</text>
  </g>

  
    <g transform="translate(70 245)">
      <rect width="382" height="165" rx="14" fill="#ffffff" stroke="#6D4C41" stroke-width="3" filter="url(#soft)"/>
      <circle cx="34" cy="34" r="22" fill="#6D4C41"/>
      <text class="num" text-anchor="middle" x="34" y="42">1</text>
      <text class="callTitle" x="68" y="39">Concetto chiave</text>
      <text class="body" x="24" y="78" text-anchor="start">Lo studente conosce le caratteristiche</text>
<text class="body" x="24" y="103" text-anchor="start">principali di materiali innovativi</text>
<text class="body" x="24" y="128" text-anchor="start">(bioplastiche, materiali riciclati...</text>
    </g>
  <path class="line" d="M452 320 C520 330 555 375 625 420"/>

  
    <g transform="translate(70 455)">
      <rect width="382" height="170" rx="14" fill="#ffffff" stroke="#2f8f66" stroke-width="3" filter="url(#soft)"/>
      <circle cx="34" cy="34" r="22" fill="#2f8f66"/>
      <text class="num" text-anchor="middle" x="34" y="42">2</text>
      <text class="callTitle" x="68" y="39">Visual da creare</text>
      <text class="body" x="24" y="78" text-anchor="start">Tabella comparativa: materiale</text>
<text class="body" x="24" y="103" text-anchor="start">tradizionale vs. innovativo — proprietà,</text>
<text class="body" x="24" y="128" text-anchor="start">costo, impatto ambientale.</text>
    </g>
  <path class="line" d="M452 540 C520 540 575 535 645 520"/>

  
    <g transform="translate(70 672)">
      <rect width="382" height="180" rx="14" fill="#ffffff" stroke="#d9762d" stroke-width="3" filter="url(#soft)"/>
      <circle cx="34" cy="34" r="22" fill="#d9762d"/>
      <text class="num" text-anchor="middle" x="34" y="42">3</text>
      <text class="callTitle" x="68" y="39">Compito di realta</text>
      <text class="body" x="24" y="78" text-anchor="start">Progetta un packaging sostenibile per un</text>
<text class="body" x="24" y="103" text-anchor="start">prodotto alimentare: scegli il materiale,</text>
<text class="body" x="24" y="128" text-anchor="start">giustifica la scelta con almeno 2...</text>
    </g>
  <path class="line" d="M452 750 C540 712 600 665 690 618"/>

  
    <g transform="translate(1148 245)">
      <rect width="382" height="170" rx="14" fill="#ffffff" stroke="#2f82b7" stroke-width="3" filter="url(#soft)"/>
      <circle cx="34" cy="34" r="22" fill="#2f82b7"/>
      <text class="num" text-anchor="middle" x="34" y="42">4</text>
      <text class="callTitle" x="68" y="39">Punti guida</text>
      <text class="body" x="24" y="78" text-anchor="start">⚡ INNESCA — HOOK · 📖 ESPLORA — CONCETTO · I</text>
<text class="body" x="24" y="103" text-anchor="start">materiali del futuro non vengono dallo</text>
<text class="body" x="24" y="128" text-anchor="start">spazio. Vengono dal laboratorio. · Perché...</text>
    </g>
  <path class="line" d="M1148 330 C1070 350 1040 382 982 430"/>

  
    <g transform="translate(1148 455)">
      <rect width="382" height="170" rx="14" fill="#ffffff" stroke="#2f8f66" stroke-width="3" filter="url(#soft)"/>
      <circle cx="34" cy="34" r="22" fill="#2f8f66"/>
      <text class="num" text-anchor="middle" x="34" y="42">5</text>
      <text class="callTitle" x="68" y="39">Aggancio reale</text>
      <text class="body" x="24" y="78" text-anchor="start">Progetta un packaging sostenibile per un</text>
<text class="body" x="24" y="103" text-anchor="start">prodotto alimentare: scegli il materiale,</text>
<text class="body" x="24" y="128" text-anchor="start">giustifica la scelta con almeno 2...</text>
    </g>
  <path class="line" d="M1148 540 C1080 540 1030 535 955 520"/>

  <g transform="translate(1148 690)">
    <rect width="382" height="122" rx="14" fill="#102f43" filter="url(#soft)"/>
    <text class="chip" x="24" y="36">Uso nella doppia pagina</text>
    <text class="chip" x="24" y="68">ESPLORA: concetto + visual</text>
    <text class="chip" x="24" y="96">SPERIMENTA/5: laboratorio e compito</text>
  </g>

  <g transform="translate(70 900)">
    <rect width="1460" height="54" rx="10" fill="#ffffff" stroke="#d5e4ec" stroke-width="2"/>
    <text class="small" x="22" y="34">Fonte testo: 08_TESTI/classe_1/MAT/MC-MAT-1-03_completa.md · Asset SVG editabile · Prima passata visuale generata da Markdown e scheda MC.</text>
  </g>
</svg>
