<svg xmlns="http://www.w3.org/2000/svg" width="1400" height="800" viewBox="0 0 1400 800"><defs><filter id="s"><feDropShadow dx="0" dy="10" stdDeviation="12" flood-color="#123" flood-opacity=".13"/></filter><pattern id="grid" width="28" height="28" patternUnits="userSpaceOnUse"><path d="M28 0H0V28" fill="none" stroke="#D6EAFB" stroke-width="1"/></pattern></defs><rect width="1400" height="800" fill="#fff"/><rect x="50" y="48" width="1300" height="704" rx="36" fill="#F6FAFD"/><text x="82" y="92" font-family="Arial, sans-serif" font-size="24" font-weight="800" fill="#1565C0">MC-DIS-1-01 · ESPLORA · Immagine 03</text><text x="82" y="130" font-family="Arial, sans-serif" font-size="18" font-weight="700" fill="#40515F"><tspan x="82" dy="0">Gli strumenti del disegno tecnico</tspan></text><g transform="translate(340 138) rotate(-2)" filter="url(#s)"><rect width="710" height="500" rx="18" fill="#fff" stroke="#D7E2EC" stroke-width="2"/><rect x="24" y="24" width="662" height="452" fill="url(#grid)" opacity=".9"/><g transform="translate(70 70)" stroke="#1565C0" stroke-width="4" fill="#fff"><rect x="0" y="240" width="340" height="44" rx="8"/><polygon points="430,260 620,260 620,70" fill="#F5FBFF"/><circle cx="245" cy="85" r="56" fill="none"/><path d="M245 142l-70 160M245 142l72 160"/><path d="M40 90h230"/><path d="M540 300 A80 80 0 0 0 620 220"/></g></g><g filter="url(#s)"><g transform="translate(118 560) rotate(-18)"><rect width="420" height="58" rx="10" fill="#fff" stroke="#1565C0" stroke-width="3"/><line x1="24" y1="0" x2="24" y2="28" stroke="#1565C0" stroke-width="2"/><line x1="45" y1="0" x2="45" y2="18" stroke="#1565C0" stroke-width="2"/><line x1="66" y1="0" x2="66" y2="28" stroke="#1565C0" stroke-width="2"/><line x1="87" y1="0" x2="87" y2="18" stroke="#1565C0" stroke-width="2"/><line x1="108" y1="0" x2="108" y2="28" stroke="#1565C0" stroke-width="2"/><line x1="129" y1="0" x2="129" y2="18" stroke="#1565C0" stroke-width="2"/><line x1="150" y1="0" x2="150" y2="28" stroke="#1565C0" stroke-width="2"/><line x1="171" y1="0" x2="171" y2="18" stroke="#1565C0" stroke-width="2"/><line x1="192" y1="0" x2="192" y2="28" stroke="#1565C0" stroke-width="2"/><line x1="213" y1="0" x2="213" y2="18" stroke="#1565C0" stroke-width="2"/><line x1="234" y1="0" x2="234" y2="28" stroke="#1565C0" stroke-width="2"/><line x1="255" y1="0" x2="255" y2="18" stroke="#1565C0" stroke-width="2"/><line x1="276" y1="0" x2="276" y2="28" stroke="#1565C0" stroke-width="2"/><line x1="297" y1="0" x2="297" y2="18" stroke="#1565C0" stroke-width="2"/><line x1="318" y1="0" x2="318" y2="28" stroke="#1565C0" stroke-width="2"/><line x1="339" y1="0" x2="339" y2="18" stroke="#1565C0" stroke-width="2"/><line x1="360" y1="0" x2="360" y2="28" stroke="#1565C0" stroke-width="2"/><line x1="381" y1="0" x2="381" y2="18" stroke="#1565C0" stroke-width="2"/></g><g transform="translate(990 455) rotate(12)"><polygon points="0,220 250,220 250,0" fill="#F9FCFF" stroke="#1565C0" stroke-width="4"/><polygon points="92,178 205,178 205,62" fill="#fff" stroke="#1565C0" stroke-width="3" opacity=".55"/></g><g transform="translate(712 650) rotate(-31)"><rect width="410" height="22" rx="11" fill="#263238"/><rect x="308" width="58" height="22" fill="#F7C65B"/><polygon points="410,11 366,0 366,22" fill="#D9B184"/></g></g><path d="M160,264 C255,264 255,250 350,250" fill="none" stroke="#1565C0" stroke-width="2" opacity=".6"/><g><rect x="90" y="245" width="150" height="38" rx="19" fill="#E3F2FD" stroke="#1565C0" stroke-width="2"/><text x="165" y="270" text-anchor="middle" font-family="Arial, sans-serif" font-size="17" font-weight="700" fill="#1A1A1A">La matita</text></g><path d="M1150,169 C1055,169 1055,220 960,220" fill="none" stroke="#1565C0" stroke-width="2" opacity=".6"/><g><rect x="1080" y="150" width="150" height="38" rx="19" fill="#E3F2FD" stroke="#1565C0" stroke-width="2"/><text x="1155" y="175" text-anchor="middle" font-family="Arial, sans-serif" font-size="17" font-weight="700" fill="#1A1A1A">Il righello</text></g><path d="M1150,353 C1060,353 1060,350 970,350" fill="none" stroke="#1565C0" stroke-width="2" opacity=".6"/><g><rect x="1080" y="334" width="150" height="38" rx="19" fill="#E3F2FD" stroke="#1565C0" stroke-width="2"/><text x="1155" y="359" text-anchor="middle" font-family="Arial, sans-serif" font-size="17" font-weight="700" fill="#1A1A1A">Le squadre</text></g><path d="M164,423 C272,423 272,390 380,390" fill="none" stroke="#1565C0" stroke-width="2" opacity=".6"/><g><rect x="94" y="404" width="170" height="38" rx="19" fill="#E3F2FD" stroke="#1565C0" stroke-width="2"/><text x="179" y="429" text-anchor="middle" font-family="Arial, sans-serif" font-size="17" font-weight="700" fill="#1A1A1A">Il compasso</text></g><path d="M270,669 C350,669 350,600 430,600" fill="none" stroke="#1565C0" stroke-width="2" opacity=".6"/><g><rect x="200" y="650" width="150" height="38" rx="19" fill="#E3F2FD" stroke="#1565C0" stroke-width="2"/><text x="275" y="675" text-anchor="middle" font-family="Arial, sans-serif" font-size="17" font-weight="700" fill="#1A1A1A">Il rapportatore</text></g><path d="M1100,661 C1015,661 1015,585 930,585" fill="none" stroke="#1565C0" stroke-width="2" opacity=".6"/><g><rect x="1030" y="642" width="150" height="38" rx="19" fill="#E3F2FD" stroke="#1565C0" stroke-width="2"/><text x="1105" y="667" text-anchor="middle" font-family="Arial, sans-serif" font-size="17" font-weight="700" fill="#1A1A1A">rette parallele</text></g><text x="700" y="735" text-anchor="middle" font-family="Arial, sans-serif" font-size="21" font-weight="700" fill="#4D5A66">Illustrazione SVG controllata · etichette brevi in italiano · formato 1400×800</text></svg>