<svg xmlns="http://www.w3.org/2000/svg" width="1600" height="1600" viewBox="0 0 1600 1600"><rect width="1600" height="1600" fill="#F8FBFD"/><defs><filter id="s"><feDropShadow dx="0" dy="8" stdDeviation="10" flood-color="#12313F" flood-opacity="0.14"/></filter></defs>
<text x="80" y="90.0" text-anchor="start" dominant-baseline="middle" font-family="Inter, Nunito, Arial, sans-serif" font-size="34" font-weight="800" fill="#14313F">MC-DIG-1-03</text>
<text x="80" y="138.0" text-anchor="start" dominant-baseline="middle" font-family="Inter, Nunito, Arial, sans-serif" font-size="38" font-weight="800" fill="#0277BD">Come pensa una macchina: dai passi agli algoritmi</text>
<path d="M800 800 C800 800 800 250 800 250" fill="none" stroke="#5E35B1" stroke-width="8" stroke-linecap="round" opacity="0.42"/>
<path d="M800 800 C1045 800 1045 555 1290 555" fill="none" stroke="#1565C0" stroke-width="8" stroke-linecap="round" opacity="0.42"/>
<path d="M800 800 C945 800 945 1160 1090 1160" fill="none" stroke="#E65100" stroke-width="8" stroke-linecap="round" opacity="0.42"/>
<path d="M800 800 C655 800 655 1160 510 1160" fill="none" stroke="#00695C" stroke-width="8" stroke-linecap="round" opacity="0.42"/>
<path d="M800 800 C555 800 555 555 310 555" fill="none" stroke="#F57F17" stroke-width="8" stroke-linecap="round" opacity="0.42"/>
<g filter="url(#s)"><rect x="545" y="680" width="510" height="240" rx="34" fill="#0277BD"/><rect x="545" y="875" width="510" height="45" fill="#015E92"/><text x="800" y="760.0" text-anchor="middle" dominant-baseline="middle" font-family="Inter, Nunito, Arial, sans-serif" font-size="42" font-weight="800" fill="white">Pensiero</text>
<text x="800" y="810.0" text-anchor="middle" dominant-baseline="middle" font-family="Inter, Nunito, Arial, sans-serif" font-size="42" font-weight="800" fill="white">computazionale</text></g>
<g filter="url(#s)">
<rect x="610" y="194" width="380" height="86" rx="32" fill="#5E35B1"/>
<text x="800" y="237.0" text-anchor="middle" dominant-baseline="middle" font-family="Inter, Nunito, Arial, sans-serif" font-size="28" font-weight="800" fill="white">INNESCA</text>
<rect x="560" y="290" width="480" height="68" rx="20" fill="white" stroke="#5E35B1" stroke-width="4"/>
<text x="800" y="324.0" text-anchor="middle" dominant-baseline="middle" font-family="Inter, Nunito, Arial, sans-serif" font-size="22" font-weight="700" fill="#17313B">Il cameriere non sbaglia</text>
<rect x="560" y="372" width="480" height="68" rx="20" fill="white" stroke="#5E35B1" stroke-width="4"/>
<text x="800" y="406.0" text-anchor="middle" dominant-baseline="middle" font-family="Inter, Nunito, Arial, sans-serif" font-size="22" font-weight="700" fill="#17313B">Istruzioni in ordine</text>
<rect x="560" y="454" width="480" height="68" rx="20" fill="white" stroke="#5E35B1" stroke-width="4"/>
<text x="800" y="488.0" text-anchor="middle" dominant-baseline="middle" font-family="Inter, Nunito, Arial, sans-serif" font-size="22" font-weight="700" fill="#17313B">Il robot esegue alla lettera</text>
</g>
<g filter="url(#s)">
<rect x="1100" y="499" width="380" height="86" rx="32" fill="#1565C0"/>
<text x="1290" y="542.0" text-anchor="middle" dominant-baseline="middle" font-family="Inter, Nunito, Arial, sans-serif" font-size="28" font-weight="800" fill="white">ESPLORA</text>
<rect x="1050" y="595" width="480" height="68" rx="20" fill="white" stroke="#1565C0" stroke-width="4"/>
<text x="1290" y="629.0" text-anchor="middle" dominant-baseline="middle" font-family="Inter, Nunito, Arial, sans-serif" font-size="22" font-weight="700" fill="#17313B">Decomposizione</text>
<rect x="1050" y="677" width="480" height="68" rx="20" fill="white" stroke="#1565C0" stroke-width="4"/>
<text x="1290" y="711.0" text-anchor="middle" dominant-baseline="middle" font-family="Inter, Nunito, Arial, sans-serif" font-size="22" font-weight="700" fill="#17313B">Sequenza</text>
<rect x="1050" y="759" width="480" height="68" rx="20" fill="white" stroke="#1565C0" stroke-width="4"/>
<text x="1290" y="793.0" text-anchor="middle" dominant-baseline="middle" font-family="Inter, Nunito, Arial, sans-serif" font-size="22" font-weight="700" fill="#17313B">Condizione</text>
<rect x="1050" y="841" width="480" height="68" rx="20" fill="white" stroke="#1565C0" stroke-width="4"/>
<text x="1290" y="875.0" text-anchor="middle" dominant-baseline="middle" font-family="Inter, Nunito, Arial, sans-serif" font-size="22" font-weight="700" fill="#17313B">Ciclo</text>
</g>
<g filter="url(#s)">
<rect x="900" y="1104" width="380" height="86" rx="32" fill="#E65100"/>
<text x="1090" y="1147.0" text-anchor="middle" dominant-baseline="middle" font-family="Inter, Nunito, Arial, sans-serif" font-size="28" font-weight="800" fill="white">SPERIMENTA</text>
<rect x="850" y="1200" width="480" height="68" rx="20" fill="white" stroke="#E65100" stroke-width="4"/>
<text x="1090" y="1234.0" text-anchor="middle" dominant-baseline="middle" font-family="Inter, Nunito, Arial, sans-serif" font-size="22" font-weight="700" fill="#17313B">Robot umano</text>
<rect x="850" y="1282" width="480" height="68" rx="20" fill="white" stroke="#E65100" stroke-width="4"/>
<text x="1090" y="1316.0" text-anchor="middle" dominant-baseline="middle" font-family="Inter, Nunito, Arial, sans-serif" font-size="22" font-weight="700" fill="#17313B">Diagramma di flusso</text>
<rect x="850" y="1364" width="480" height="68" rx="20" fill="white" stroke="#E65100" stroke-width="4"/>
<text x="1090" y="1398.0" text-anchor="middle" dominant-baseline="middle" font-family="Inter, Nunito, Arial, sans-serif" font-size="22" font-weight="700" fill="#17313B">Debug del bug</text>
</g>
<g filter="url(#s)">
<rect x="320" y="1104" width="380" height="86" rx="32" fill="#00695C"/>
<text x="510" y="1147.0" text-anchor="middle" dominant-baseline="middle" font-family="Inter, Nunito, Arial, sans-serif" font-size="28" font-weight="800" fill="white">AGISCI</text>
<rect x="270" y="1200" width="480" height="68" rx="20" fill="white" stroke="#00695C" stroke-width="4"/>
<text x="510" y="1221.0" text-anchor="middle" dominant-baseline="middle" font-family="Inter, Nunito, Arial, sans-serif" font-size="22" font-weight="700" fill="#17313B">Trasforma una procedura</text>
<text x="510" y="1247.0" text-anchor="middle" dominant-baseline="middle" font-family="Inter, Nunito, Arial, sans-serif" font-size="22" font-weight="700" fill="#17313B">quotidiana</text>
<rect x="270" y="1282" width="480" height="68" rx="20" fill="white" stroke="#00695C" stroke-width="4"/>
<text x="510" y="1316.0" text-anchor="middle" dominant-baseline="middle" font-family="Inter, Nunito, Arial, sans-serif" font-size="22" font-weight="700" fill="#17313B">Testa con un compagno</text>
<rect x="270" y="1364" width="480" height="68" rx="20" fill="white" stroke="#00695C" stroke-width="4"/>
<text x="510" y="1385.0" text-anchor="middle" dominant-baseline="middle" font-family="Inter, Nunito, Arial, sans-serif" font-size="22" font-weight="700" fill="#17313B">Professione: computational</text>
<text x="510" y="1411.0" text-anchor="middle" dominant-baseline="middle" font-family="Inter, Nunito, Arial, sans-serif" font-size="22" font-weight="700" fill="#17313B">thinker</text>
</g>
<g filter="url(#s)">
<rect x="120" y="499" width="380" height="86" rx="32" fill="#F57F17"/>
<text x="310" y="542.0" text-anchor="middle" dominant-baseline="middle" font-family="Inter, Nunito, Arial, sans-serif" font-size="28" font-weight="800" fill="white">RIPASSA</text>
<rect x="70" y="595" width="480" height="68" rx="20" fill="white" stroke="#F57F17" stroke-width="4"/>
<text x="310" y="629.0" text-anchor="middle" dominant-baseline="middle" font-family="Inter, Nunito, Arial, sans-serif" font-size="22" font-weight="700" fill="#17313B">algoritmo</text>
<rect x="70" y="677" width="480" height="68" rx="20" fill="white" stroke="#F57F17" stroke-width="4"/>
<text x="310" y="711.0" text-anchor="middle" dominant-baseline="middle" font-family="Inter, Nunito, Arial, sans-serif" font-size="22" font-weight="700" fill="#17313B">flowchart</text>
<rect x="70" y="759" width="480" height="68" rx="20" fill="white" stroke="#F57F17" stroke-width="4"/>
<text x="310" y="793.0" text-anchor="middle" dominant-baseline="middle" font-family="Inter, Nunito, Arial, sans-serif" font-size="22" font-weight="700" fill="#17313B">if/then</text>
<rect x="70" y="841" width="480" height="68" rx="20" fill="white" stroke="#F57F17" stroke-width="4"/>
<text x="310" y="875.0" text-anchor="middle" dominant-baseline="middle" font-family="Inter, Nunito, Arial, sans-serif" font-size="22" font-weight="700" fill="#17313B">loop</text>
<rect x="70" y="923" width="480" height="68" rx="20" fill="white" stroke="#F57F17" stroke-width="4"/>
<text x="310" y="957.0" text-anchor="middle" dominant-baseline="middle" font-family="Inter, Nunito, Arial, sans-serif" font-size="22" font-weight="700" fill="#17313B">debug</text>
</g>
</svg>